<svg xmlns="http://www.w3.org/2000/svg" viewBox="0 0 399.5 72.5"><defs><style>.cls-1{fill:#fff;}.cls-2{fill:#69ffdb;}</style></defs><title>Asset 1</title><g id="Layer_2" data-name="Layer 2"><g id="Ebene_1" data-name="Ebene 1"><path class="cls-1" d="M37,16.5l8.6,29.7,9-29.7H65.4L51.6,56.2H40.2L36.1,44.5,32.6,31.3,29.1,44.5,25,56.2H13.6L0,16.5H10.9l9,29.7,8.6-29.7Z"/><path class="cls-1" d="M77,39.8c.6,4.9,4.9,8.4,11.8,8.4,3.6,0,8.3-1.4,10.6-3.7l6.2,6.2c-4.2,4.3-11,6.4-17,6.4-13.6,0-21.7-8.4-21.7-21,0-12,8.2-20.6,21-20.6,13.2,0,21.4,8.2,19.9,24.4H77Zm21.4-8.1c-.6-5.1-4.6-7.7-10.2-7.7-5.3,0-9.6,2.6-11,7.7Z"/><path class="cls-2" d="M129.5,49.1c0,10.1-15.3,10.1-15.3,0S129.5,39.1,129.5,49.1Z"/><path class="cls-1" d="M315.3,6.9c0,9.2-14,9.2-14,0S315.3-2.3,315.3,6.9Z"/><path class="cls-1" d="M138.2,72.5V16.6h9.1l.6,5.4c3-4.4,8.3-6.3,12.8-6.3,12.2,0,20.2,9,20.2,20.6S173.6,56.9,161,56.9c-4.2,0-10.3-1.3-13.1-5.6V72.4h-9.7Zm33-36.1c0-6.2-4.2-11.2-11.2-11.2s-11.2,5-11.2,11.2a11.2,11.2,0,1,0,22.4,0Z"/><path class="cls-1" d="M197.3,16.6V37.2c0,6,3.3,10.6,9.5,10.6,6,0,10.1-5,10.1-11V16.6h9.7V56.1h-8.7l-.6-5.4c-4.1,4-7.8,5.9-13.4,5.9-9.4,0-16.3-7.1-16.3-19.4V16.6Z"/><path class="cls-1" d="M245,.1V21.9c2.3-4.1,8.8-6.3,13-6.3,11.5,0,20.1,7,20.1,20.6,0,13-8.7,20.6-20.3,20.6-4.8,0-9.7-1.6-12.7-6.3l-.6,5.4h-9.1V0H245Zm.6,36.2A11.19,11.19,0,0,0,257,47.9c6.2,0,11.2-4.7,11.2-11.6,0-7.1-5-11.5-11.2-11.5A11.23,11.23,0,0,0,245.6,36.3Z"/><path class="cls-1" d="M294.9.1V56h-9.7V.1Z"/><path class="cls-1" d="M303.5,19.4V56h9.8V19.4Z"/><path class="cls-1" d="M347.8,27.1c-2.8-2.6-6-3.5-9.8-3.5-4.6,0-7.2,1.4-7.2,3.9s2.3,4,7.4,4.3c7.4.5,16.9,2.2,16.9,12.6,0,7-5.7,13-17,13-6.2,0-12.5-1-18.2-7l4.8-7c2.8,3.1,9.2,5.4,13.6,5.5,3.7.1,7.1-1.8,7.1-4.7,0-2.7-2.2-3.8-7.8-4.2-7.4-.6-16.3-3.3-16.3-12.2,0-9.1,9.4-12.3,16.6-12.3,6.2,0,10.8,1.2,15.4,5.2Z"/><path class="cls-1" d="M371,.1V22a14.36,14.36,0,0,1,12.3-5.9c11.2,0,16.2,7.6,16.2,19.2V56.1h-9.8V35.4c0-7.2-3.8-10.2-9-10.2-5.8,0-9.8,4.9-9.8,10.8V56.2h-9.8V.2H371Z"/></g></g></svg>