<svg width="177" height="176" viewBox="0 0 177 176" fill="none" xmlns="http://www.w3.org/2000/svg">
<g clip-path="url(#clip0)">
<path d="M54.4724 169.008C99.2583 187.967 150.976 167.129 169.986 122.463C188.996 77.7982 168.101 26.2204 123.315 7.26114C78.5295 -11.6981 26.8123 9.14068 7.80185 53.8059C-11.2086 98.4711 9.68646 150.049 54.4724 169.008Z" fill="white"/>
<path d="M93.4599 101.621C89.128 101.621 85.8652 103.184 83.5241 106.438V102.338H77.9018H72.9984H69.1089L67.3945 112.045H73.0168V140.43V148.427H83.5241V140.43V134.621C87.3583 137.728 89.7732 138.665 94.1051 138.665C103.469 138.665 111.507 130.227 111.507 120.318C111.488 110.041 103.322 101.621 93.4599 101.621ZM92.0405 128.738C87.1371 128.738 83.1554 124.914 83.1554 120.171C83.1554 115.354 87.1371 111.53 92.0405 111.53C96.9439 111.53 100.833 115.354 100.833 120.097C100.833 124.914 96.9439 128.738 92.0405 128.738Z" fill="black"/>
<path d="M123.36 85.9187C117.646 85.9187 112.355 82.8118 109.535 77.8297C107.986 75.0905 107.249 71.9835 107.36 68.7295C103.691 67.075 100.797 64.538 98.5297 61.7803C97.0181 68.4722 93.8844 74.9618 89.6446 79.4291C85.3311 83.9516 80.2065 85.8084 75.2294 84.6686C71.8928 83.8965 69.3305 81.7087 67.6715 78.3628C61.9939 85.0547 56.6481 85.8819 53.035 85.312C49.0902 84.687 46.0855 82.4073 44.3343 78.7673C41.477 72.7557 42.5278 63.9129 44.961 56.1364C42.3619 56.6879 39.394 56.835 36.0575 56.357L37.1451 48.9298C44.279 49.9777 48.5372 46.8157 49.4773 45.492C49.5695 45.3449 49.6432 45.1795 49.7354 45.0324L56.3716 48.5622C56.261 48.8012 56.1319 49.0401 55.966 49.2791C51.4866 57.2946 48.5003 70.0164 51.1364 75.5501C51.8184 76.9656 52.7401 77.6642 54.2148 77.9032C56.1688 78.2158 58.3255 77.2046 60.6482 74.8698C62.4363 73.0866 64.04 70.8253 65.4594 68.3986C65.3857 66.3212 65.4779 64.06 65.7544 61.67C66.3258 56.6696 68.3167 45.0508 74.492 45.0508C76.1879 45.0508 77.6811 45.9884 78.4737 47.5326C80.4277 51.3565 77.4414 61.6517 73.1095 69.9797C73.2569 71.3217 73.4781 72.5534 73.81 73.6013C74.8422 76.8737 76.3723 77.223 76.87 77.3517C79.2295 77.8848 81.6812 76.8553 84.1513 74.2632C90.0317 68.0861 93.3498 56.0261 91.4696 47.9739C91.3221 47.4591 91.2483 47.1282 91.2299 47.0363L98.5297 45.1795C98.6034 45.4552 98.6772 45.7126 98.7509 45.9884C99.433 48.3783 102.29 57.074 108.963 61.1001C109.553 59.5743 110.309 58.0484 111.231 56.5225C115.194 49.9777 122.623 43.672 131.674 45.5655C136.688 46.6134 140.43 50.18 140.983 54.4267C141.517 58.6183 140.098 62.5709 136.964 65.5307C132.282 69.9797 124.171 71.8365 114.954 70.6966C115.12 71.9468 115.489 73.105 116.079 74.1529C117.572 76.7818 120.355 78.418 123.36 78.418C128.392 78.418 132.245 76.3773 133.849 74.3551L139.766 79.0063C136.393 83.2714 130.107 85.9187 123.36 85.9187ZM116.208 63.2878C124.153 64.2254 129.406 62.3319 131.784 60.089C133.185 58.747 133.757 57.2211 133.517 55.3827C133.406 54.5002 132.098 53.3236 130.125 52.9192C128.485 52.5699 122.715 52.0919 117.682 60.4015C117.111 61.3575 116.613 62.3319 116.208 63.2878Z" fill="black"/>
</g>
<defs>
<clipPath id="clip0">
<rect width="176.19" height="175.716" fill="white" transform="translate(0.798828 0.276917)"/>
</clipPath>
</defs>
</svg>
