<svg width="49" height="18" viewBox="0 0 49 18" fill="none" xmlns="http://www.w3.org/2000/svg">
<g clip-path="url(#clip0)">
<path d="M30.3178 0L27.252 18H48.4815V0H30.3178Z" fill="black"/>
<path d="M39.1368 3.94775C38.2044 3.94775 37.5031 4.28373 36.9949 4.98928V4.10314H35.7854H34.7312H33.5217V6.1988H34.7312V12.3262V14.0523H36.9949V12.3262V11.0747C37.8222 11.7466 38.3388 11.944 39.2711 11.944C41.287 11.944 43.0173 10.1255 43.0173 7.98368C43.0215 5.76623 41.2618 3.94775 39.1368 3.94775ZM38.8302 9.80216C37.776 9.80216 36.9193 8.97482 36.9193 7.95429C36.9193 6.91696 37.776 6.08961 38.8302 6.08961C39.8843 6.08961 40.7242 6.91696 40.7242 7.93749C40.7242 8.97482 39.8843 9.80216 38.8302 9.80216Z" fill="white"/>
<path d="M22.1786 13.4181C20.9481 13.4181 19.81 12.7504 19.201 11.671C18.865 11.0789 18.7096 10.4111 18.7306 9.70558C17.9411 9.3486 17.3153 8.80264 16.8282 8.20628C16.5006 9.65098 15.8286 11.0537 14.9131 12.0154C13.985 12.9898 12.8804 13.3929 11.8095 13.1452C11.0914 12.9814 10.5412 12.5068 10.1842 11.7844C8.96209 13.2291 7.81137 13.4097 7.03442 13.2837C6.18608 13.1494 5.53512 12.658 5.16135 11.8684C4.54399 10.5707 4.77077 8.66405 5.29574 6.98416C4.73717 7.10175 4.09462 7.13535 3.37646 7.03036L3.61165 5.42606C5.14875 5.64865 6.06429 4.9683 6.26587 4.68691C6.28267 4.65332 6.30367 4.61972 6.32047 4.58612L7.74837 5.34627C7.72318 5.39667 7.69378 5.44706 7.66438 5.50166C6.69844 7.23194 6.05589 9.97856 6.62285 11.1713C6.76984 11.4779 6.96723 11.6291 7.2864 11.6794C7.70638 11.7466 8.17255 11.5283 8.67231 11.0285C9.05869 10.6421 9.40306 10.1549 9.70544 9.62998C9.68864 9.18061 9.70964 8.69345 9.76844 8.17688C9.89023 7.09755 10.3186 4.59032 11.6499 4.59032C12.0153 4.59032 12.3345 4.79191 12.5067 5.12788C12.9266 5.95523 12.2841 8.17688 11.3517 9.97436C11.3811 10.2641 11.4315 10.5287 11.5029 10.7555C11.7255 11.4653 12.0531 11.5409 12.1623 11.5619C12.6704 11.6794 13.1954 11.4527 13.7288 10.8941C14.9971 9.56279 15.7068 6.95896 15.3037 5.22028C15.2743 5.10689 15.2575 5.03549 15.2533 5.01449L16.8366 4.61972C16.8534 4.67851 16.8702 4.73731 16.8828 4.79611C17.0298 5.31267 17.6471 7.18995 19.0834 8.05929C19.2136 7.73171 19.3732 7.39993 19.5706 7.07236C20.4231 5.66125 22.0232 4.30054 23.9719 4.70791C25.0512 4.9347 25.8576 5.70325 25.9752 6.61879C26.0928 7.52592 25.7862 8.37427 25.11 9.01683C24.1021 9.97436 22.355 10.3775 20.3727 10.1298C20.4063 10.3985 20.4861 10.6463 20.6163 10.8731C20.9355 11.4401 21.5361 11.7928 22.1828 11.7928C23.2663 11.7928 24.0979 11.3519 24.4381 10.9151L25.7106 11.9188C24.984 12.8428 23.6317 13.4181 22.1786 13.4181ZM20.6415 8.52966C22.3508 8.73544 23.4847 8.32387 23.9929 7.8409C24.2953 7.55112 24.4171 7.21935 24.3667 6.82457C24.3415 6.63138 24.0643 6.3836 23.6359 6.29121C23.2831 6.21561 22.04 6.11062 20.9565 7.9081C20.8347 8.11389 20.7297 8.32387 20.6415 8.52966Z" fill="black"/>
<path d="M34.4402 0.998099L30.8875 0.371826L29.9717 5.5665L33.5245 6.19277L34.4402 0.998099Z" fill="black"/>
</g>
<defs>
<clipPath id="clip0">
<rect width="48.4816" height="18" fill="white"/>
</clipPath>
</defs>
</svg>
